<svg width="32" height="32" viewBox="0 0 32 32" fill="none" xmlns="http://www.w3.org/2000/svg">
  <!-- Teal-green cloud/semi-circular shape at top -->
  <path d="M16 4C18 4 20 5 21 7C23 7 25 9 25 11C27 11 29 13 29 15C29 17 27 19 25 19L16 19L7 19C5 19 3 17 3 15C3 13 5 11 7 11C7 9 9 7 11 7C12 5 14 4 16 4Z" fill="#14B8A6"/>
  
  <!-- Black central element -->
  <circle cx="16" cy="20" r="3" fill="#000000"/>
  
  <!-- Black radiating lines downward -->
  <line x1="16" y1="23" x2="16" y2="28" stroke="#000000" stroke-width="2" stroke-linecap="round"/>
  <line x1="16" y1="23" x2="12" y2="27" stroke="#000000" stroke-width="2" stroke-linecap="round"/>
  <line x1="16" y1="23" x2="20" y2="27" stroke="#000000" stroke-width="2" stroke-linecap="round"/>
  <line x1="16" y1="23" x2="14" y2="28" stroke="#000000" stroke-width="2" stroke-linecap="round"/>
  <line x1="16" y1="23" x2="18" y2="28" stroke="#000000" stroke-width="2" stroke-linecap="round"/>
</svg>

