<svg width="120" height="60" viewBox="0 0 120 60" fill="none" xmlns="http://www.w3.org/2000/svg">
  <!-- Define clip path for rounded rectangle -->
  <defs>
    <clipPath id="roundedRect">
      <rect x="0" y="0" width="120" height="60" rx="12" ry="12"/>
    </clipPath>
  </defs>
  
  <!-- Teal green rounded rectangle background -->
  <rect x="0" y="0" width="120" height="60" rx="12" ry="12" fill="#14B8A6"/>
  
  <!-- Central horizontal white band -->
  <rect x="10" y="27" width="100" height="6" fill="white"/>
  
  <!-- White rays pointing upward - creating 5 green segments pointing down -->
  <path d="M56 27 L64 27 L60 8 Z" fill="white"/> <!-- Center -->
  <path d="M48 27 L56 27 L51 15 Z" fill="white"/> <!-- Left center -->
  <path d="M64 27 L72 27 L69 15 Z" fill="white"/> <!-- Right center -->
  <path d="M40 27 L48 27 L43 20 Z" fill="white"/> <!-- Far left -->
  <path d="M72 27 L80 27 L77 20 Z" fill="white"/> <!-- Far right -->
  
  <!-- White rays pointing downward - creating 4 green segments pointing up -->
  <path d="M56 33 L64 33 L60 52 Z" fill="white"/> <!-- Center -->
  <path d="M48 33 L56 33 L51 45 Z" fill="white"/> <!-- Left center -->
  <path d="M64 33 L72 33 L69 45 Z" fill="white"/> <!-- Right center -->
  <path d="M40 33 L48 33 L43 40 Z" fill="white"/> <!-- Far left -->
  <path d="M72 33 L80 33 L77 40 Z" fill="white"/> <!-- Far right -->
</svg>
