<svg width="120" height="60" viewBox="0 0 120 60" fill="none" xmlns="http://www.w3.org/2000/svg">
  <!-- Teal green rounded rectangle background -->
  <rect x="0" y="0" width="120" height="60" rx="12" ry="12" fill="#14B8A6"/>
  
  <!-- Central horizontal white band -->
  <rect x="10" y="27" width="100" height="6" fill="white"/>
  
  <!-- White rays pointing upward -->
  <!-- Center upward ray -->
  <path d="M58 27 L62 27 L60 5 Z" fill="white"/>
  <!-- Left center upward ray -->
  <path d="M50 27 L54 27 L51 12 Z" fill="white"/>
  <!-- Right center upward ray -->
  <path d="M66 27 L70 27 L69 12 Z" fill="white"/>
  <!-- Far left upward ray -->
  <path d="M42 27 L46 27 L43 18 Z" fill="white"/>
  <!-- Far right upward ray -->
  <path d="M74 27 L78 27 L77 18 Z" fill="white"/>
  
  <!-- White rays pointing downward -->
  <!-- Center downward ray -->
  <path d="M58 33 L62 33 L60 55 Z" fill="white"/>
  <!-- Left center downward ray -->
  <path d="M50 33 L54 33 L51 48 Z" fill="white"/>
  <!-- Right center downward ray -->
  <path d="M66 33 L70 33 L69 48 Z" fill="white"/>
  <!-- Far left downward ray -->
  <path d="M42 33 L46 33 L43 42 Z" fill="white"/>
  <!-- Far right downward ray -->
  <path d="M74 33 L78 33 L77 42 Z" fill="white"/>
</svg>
